<svg width="700" height="700" viewBox="0 0 700 700" fill="none" xmlns="http://www.w3.org/2000/svg">
<path d="M447.89 436.31H489.624V528.884H447.89V436.31ZM210.38 436.31H421.71V528.884H210.38V436.31ZM350 289.68C349.621 289.68 349.43 289.489 349.051 289.489C347.694 289.42 346.353 289.165 345.066 288.731L278.293 261.985V399.135H421.703V261.975L354.93 288.721V288.725C353.348 289.315 351.68 289.635 349.997 289.674L350 289.68V289.68Z" fill="#EFC9A4"/>
<path d="M515.61 31.109C504.441 31.1167 493.73 35.5512 485.825 43.441C481.92 47.3171 478.82 51.9274 476.705 57.0065C474.589 62.0855 473.499 67.5329 473.497 73.035V123.875C473.503 125.598 473.168 127.304 472.514 128.898C471.859 130.491 470.896 131.939 469.681 133.16C468.464 134.38 467.019 135.348 465.428 136.009C463.836 136.669 462.13 137.009 460.407 137.008C458.684 137.008 456.978 136.669 455.387 136.008C453.796 135.348 452.35 134.38 451.134 133.16C449.919 131.939 448.956 130.491 448.301 128.897C447.646 127.304 447.312 125.598 447.317 123.875V76.07C446.954 75.09 446.7 74.07 446.56 73.035C446.575 65.745 444.685 58.5776 441.078 52.2426C437.471 45.9076 432.271 40.625 425.994 36.918C419.717 33.2125 412.58 31.2112 405.291 31.1125C398.003 31.0137 390.814 32.8209 384.439 36.355C378.064 39.889 372.722 45.0275 368.944 51.2613C365.166 57.4952 363.083 64.608 362.9 71.895C362.9 72.273 363.091 72.652 363.091 73.031V123.875C363.091 131.106 357.232 136.965 350.001 136.965C342.77 136.965 336.911 131.106 336.911 123.875V74.742C336.696 74.1965 336.568 73.6204 336.532 73.035C336.517 65.6845 334.571 58.4669 330.887 52.106C327.203 45.7451 321.912 40.4642 315.544 36.793C309.176 33.1231 301.956 31.1913 294.606 31.1913C287.257 31.1913 280.037 33.1231 273.669 36.793C267.301 40.4638 262.01 45.7446 258.327 52.1057C254.644 58.4669 252.698 65.6846 252.685 73.035V123.875C252.691 125.598 252.357 127.305 251.701 128.898C251.046 130.491 250.083 131.939 248.867 133.159C247.651 134.38 246.206 135.348 244.615 136.008C243.023 136.668 241.318 137.008 239.595 137.008C237.872 137.008 236.167 136.668 234.576 136.008C232.985 135.347 231.54 134.379 230.323 133.159C229.107 131.939 228.144 130.491 227.489 128.898C226.834 127.305 226.499 125.598 226.505 123.875V73.035C226.505 58.055 218.513 44.215 205.544 36.726C199.17 33.0467 191.94 31.1098 184.581 31.1098C177.222 31.1098 169.992 33.0467 163.618 36.726C157.244 40.4054 151.952 45.698 148.272 52.0717C144.593 58.4454 142.656 65.6755 142.657 73.035V256.855L205.829 399.135H252.118V242.635H252.115C252.112 240.488 252.638 238.374 253.646 236.478C254.653 234.582 256.111 232.963 257.892 231.764C259.672 230.564 261.719 229.82 263.854 229.599C265.989 229.377 268.146 229.685 270.134 230.495L350.001 262.366L429.864 230.495C430.909 230.182 432.001 230.054 433.09 230.116C434.146 229.834 435.224 229.643 436.313 229.545C438.421 229.849 440.433 230.628 442.196 231.823C443.959 233.02 445.4 234.632 446.393 236.518C447.385 238.403 447.898 240.504 447.887 242.635V399.135H494.176L557.348 256.855L557.344 73.035C557.351 61.9466 552.962 51.3076 545.14 43.449C537.317 35.5903 526.698 31.1529 515.61 31.109V31.109Z" fill="#EFC9A4"/>
</svg>
